<?xml version="1.0" encoding="utf-8"?>
<!-- Generator: Adobe Illustrator 24.1.2, SVG Export Plug-In . SVG Version: 6.00 Build 0)  -->
<svg version="1.1" id="圖層_1" xmlns="http://www.w3.org/2000/svg" xmlns:xlink="http://www.w3.org/1999/xlink" x="0px" y="0px"
	 viewBox="0 0 85.5 100.5" style="enable-background:new 0 0 85.5 100.5;" xml:space="preserve">
<style type="text/css">
	.st0{fill:#E6EDEF;}
	.st1{fill:#3D626C;}
</style>
<g>
	<path class="st0" d="M26,47c0.1,0.1,0.3,0.1,0.4-0.1c0,0,0,0,0,0c0.1-0.1,0-0.3-0.1-0.3c-0.1-0.1-0.2-0.1-0.3-0.2
		c-0.1-0.1-0.2-0.1-0.3-0.2c-0.2-0.1-0.4-0.2-0.6-0.3c-0.4-0.2-0.9-0.4-1.3-0.5c-0.4-0.2-0.9-0.3-1.3-0.5L22,44.7l-0.2-0.1l-0.2-0.1
		l-0.3-0.1l-0.2-0.1L21,44.4c-0.8-0.4-1.5-0.9-2.1-1.6c-0.1-0.2-0.3-0.3-0.4-0.5c0,0,0-0.1-0.1-0.1c-0.1-0.2-0.2-0.3-0.3-0.5
		c-0.1-0.2-0.2-0.4-0.3-0.6c0-0.1-0.1-0.2-0.1-0.3c0-0.1-0.1-0.2-0.1-0.3l0,0l0,0c-0.1-0.2-0.3-0.4-0.5-0.3c-0.2,0-0.4,0.3-0.4,0.5
		c0,0,0,0,0,0c0,0.1,0.1,0.3,0.1,0.4c0,0.1,0.1,0.2,0.1,0.4c0.1,0.2,0.2,0.5,0.3,0.7c0,0.1,0.1,0.1,0.1,0.2l0,0
		c-0.1,0.1-0.2,0.1-0.3,0.2c-0.1,0-0.2,0.1-0.3,0.1c-0.2,0-0.3,0.1-0.5,0.1l-0.5,0c-0.1,0-0.1,0.1-0.1,0.2c0,0,0,0.1,0,0.1l0.4,0.4
		c0.1,0.1,0.3,0.3,0.4,0.4c0.1,0.1,0.3,0.2,0.4,0.3c0.3,0.2,0.6,0.4,0.9,0.5c0.1,0.1,0.2,0.1,0.3,0.2c0.1,0.5,0.3,1,0.6,1.4
		c0.1,0.2,0.2,0.3,0.4,0.5c0.3,0.3,0.6,0.5,0.9,0.7c0.1,0,0.1,0,0.2,0c0-0.1,0-0.1,0-0.2l0,0c-0.2-0.2-0.5-0.5-0.6-0.7
		c-0.1-0.1-0.2-0.3-0.3-0.4c-0.1-0.2-0.1-0.3-0.2-0.5c0-0.1-0.1-0.2-0.1-0.3c0.2,0.1,0.4,0.2,0.7,0.2c0.6,0.2,1.3,0.3,2,0.3
		c0.3,0,0.6,0,1,0c0.2,0,0.5,0,0.7,0.1l0,0c0.4,0.1,0.9,0.3,1.3,0.5c0.2,0.1,0.4,0.2,0.6,0.3c0.1,0.1,0.2,0.1,0.3,0.2
		C25.8,46.9,25.8,46.9,26,47L26,47z"/>
	<path class="st0" d="M17.6,33.7c-0.1,0-0.3,0.1-0.3,0.3c0,0.1,0.1,0.2,0.3,0.3c0.1,0,0.3-0.1,0.3-0.3
		C17.9,33.8,17.8,33.7,17.6,33.7z"/>
	<path class="st0" d="M18.4,35.2c0.1,0,0.3-0.1,0.3-0.3c0-0.1-0.1-0.2-0.3-0.3c-0.1,0-0.3,0.1-0.3,0.3
		C18.2,35.1,18.3,35.2,18.4,35.2z"/>
	<path class="st0" d="M18.7,34.6c0.1,0,0.3-0.1,0.3-0.3c0-0.1-0.1-0.2-0.3-0.3c-0.1,0-0.3,0.1-0.3,0.3
		C18.5,34.4,18.6,34.6,18.7,34.6z"/>
	<path class="st0" d="M18.9,33.4c-0.1,0-0.3,0.1-0.3,0.3c0,0.1,0.1,0.2,0.3,0.3c0.1,0,0.3-0.1,0.3-0.3
		C19.2,33.5,19.1,33.4,18.9,33.4z"/>
	<path class="st0" d="M20.2,34.4c0.1,0,0.3-0.1,0.3-0.3c0-0.1-0.1-0.2-0.3-0.3c-0.1,0-0.3,0.1-0.3,0.3C20,34.3,20.1,34.4,20.2,34.4z
		"/>
	<path class="st0" d="M19.5,34.9c0.1,0,0.3-0.1,0.3-0.3c0-0.1-0.1-0.2-0.3-0.3c-0.1,0-0.3,0.1-0.3,0.3
		C19.3,34.7,19.4,34.9,19.5,34.9z"/>
	<path class="st0" d="M20.7,35.5c0.1,0,0.3-0.1,0.3-0.3c0-0.1-0.1-0.2-0.3-0.3c-0.1,0-0.3,0.1-0.3,0.3
		C20.5,35.3,20.6,35.5,20.7,35.5z"/>
	<path class="st0" d="M21,34.6c0.1,0,0.3-0.1,0.3-0.3c0-0.1-0.1-0.2-0.3-0.3c-0.1,0-0.3,0.1-0.3,0.3C20.7,34.5,20.8,34.6,21,34.6z"
		/>
	<path class="st0" d="M21.7,35.4c0,0,0.1,0,0.1,0c0,0.1,0,0.3,0.2,0.3c0,0,0.1,0,0.1,0c0.1,0,0.3-0.1,0.3-0.3c0-0.1-0.1-0.2-0.3-0.3
		c0,0-0.1,0-0.1,0c0-0.1,0-0.3-0.2-0.3c0,0-0.1,0-0.1,0c-0.1,0-0.3,0.1-0.3,0.3C21.5,35.3,21.6,35.4,21.7,35.4z"/>
	<path class="st0" d="M21.6,35.5c-0.1,0-0.3,0.1-0.3,0.3c0,0.1,0.1,0.2,0.3,0.3c0.1,0,0.3-0.1,0.3-0.3
		C21.9,35.7,21.8,35.5,21.6,35.5z"/>
	<path class="st0" d="M22.6,36.7c0.1,0,0.3-0.1,0.3-0.3c0-0.1-0.1-0.2-0.3-0.3c-0.1,0-0.3,0.1-0.3,0.3
		C22.4,36.6,22.5,36.7,22.6,36.7z"/>
	<path class="st0" d="M23.7,37.1C23.8,37.1,23.8,37.1,23.7,37.1c0,0.1,0.1,0.3,0.2,0.3c0.1,0.1,0.3,0,0.4-0.1s0-0.3-0.1-0.4
		c0,0-0.1,0-0.1,0c0,0-0.1,0-0.1,0c0.1-0.1,0-0.3-0.1-0.4s-0.3,0-0.4,0.1s0,0.3,0.1,0.4C23.7,37.1,23.7,37.1,23.7,37.1L23.7,37.1z"
		/>
	<path class="st0" d="M23.4,36.3c0.1,0,0.3-0.1,0.3-0.3c0-0.1-0.1-0.2-0.3-0.3c-0.1,0-0.3,0.1-0.3,0.3
		C23.1,36.2,23.2,36.3,23.4,36.3z"/>
	<path class="st0" d="M25.2,37.7c0.1,0,0.3-0.1,0.3-0.3c0-0.1-0.1-0.2-0.3-0.3c-0.1,0-0.3,0.1-0.3,0.3C24.9,37.6,25,37.7,25.2,37.7z
		"/>
	<path class="st0" d="M24.6,37.9c0.1,0,0.3-0.1,0.3-0.3c0-0.1-0.1-0.2-0.3-0.3c-0.1,0-0.3,0.1-0.3,0.3
		C24.3,37.8,24.4,37.9,24.6,37.9z"/>
	<path class="st0" d="M26.8,39.5c0.1,0,0.3-0.1,0.3-0.3c0-0.1-0.1-0.2-0.3-0.3c-0.1,0-0.3,0.1-0.3,0.3
		C26.6,39.4,26.7,39.5,26.8,39.5z"/>
	<path class="st0" d="M26.1,39.1c0.1,0,0.3-0.1,0.3-0.3c0-0.1-0.1-0.2-0.3-0.3c-0.1,0-0.3,0.1-0.3,0.3C25.8,39,25.9,39.1,26.1,39.1z
		"/>
	<path class="st0" d="M25.2,39c0.1,0,0.3-0.1,0.3-0.3c0-0.1-0.1-0.2-0.3-0.3c-0.1,0-0.3,0.1-0.3,0.3C24.9,38.9,25,39,25.2,39z"/>
	<path class="st0" d="M25.5,38.4c0.1,0,0.3-0.1,0.3-0.3c0-0.1-0.1-0.2-0.3-0.3c-0.1,0-0.3,0.1-0.3,0.3
		C25.2,38.3,25.3,38.4,25.5,38.4z"/>
	<path class="st0" d="M23.1,37.2c0.1,0,0.3-0.1,0.3-0.3c0-0.1-0.1-0.2-0.3-0.3c-0.1,0-0.3,0.1-0.3,0.3
		C22.8,37.1,22.9,37.2,23.1,37.2z"/>
	<path class="st0" d="M17.9,35.1c0.1,0,0.3-0.1,0.3-0.3c0-0.1-0.1-0.2-0.3-0.3c-0.1,0-0.3,0.1-0.3,0.3C17.6,35,17.7,35.1,17.9,35.1z
		"/>
	<path class="st0" d="M19.9,33.3c-0.1,0-0.3,0.1-0.3,0.3c0,0.1,0.1,0.2,0.3,0.3c0.1,0,0.3-0.1,0.3-0.3C20.2,33.4,20,33.3,19.9,33.3z
		"/>
	<path class="st0" d="M20.8,33.4c-0.1,0-0.3,0.1-0.3,0.3c0,0.1,0.1,0.2,0.3,0.3c0.1,0,0.3-0.1,0.3-0.3
		C21.1,33.5,20.9,33.4,20.8,33.4z"/>
	<path class="st0" d="M21.6,34.3c0.1,0,0.3-0.1,0.3-0.3c0-0.1-0.1-0.2-0.3-0.3c-0.1,0-0.3,0.1-0.3,0.3
		C21.3,34.2,21.4,34.3,21.6,34.3z"/>
	<path class="st0" d="M19.1,34.8c-0.1,0-0.3,0.1-0.3,0.3c0,0.1,0.1,0.2,0.3,0.3c0.1,0,0.3-0.1,0.3-0.3
		C19.3,34.9,19.2,34.8,19.1,34.8z"/>
	<path class="st0" d="M16.5,60.3c0.1,0,0.3-0.1,0.3-0.3c0-0.1-0.1-0.2-0.3-0.3c-0.1,0-0.3,0.1-0.3,0.3
		C16.3,60.2,16.4,60.3,16.5,60.3z"/>
	<path class="st0" d="M15.2,59.4c0.1,0,0.3-0.1,0.3-0.3c0-0.1-0.1-0.2-0.3-0.3c-0.1,0-0.3,0.1-0.3,0.3C14.9,59.2,15,59.4,15.2,59.4z
		"/>
	<path class="st0" d="M15.4,60.3c0.1,0,0.3-0.1,0.3-0.3c0-0.1-0.1-0.2-0.3-0.3c-0.1,0-0.3,0.1-0.3,0.3
		C15.1,60.2,15.2,60.3,15.4,60.3z"/>
	<path class="st0" d="M16.1,58.8c-0.1,0-0.3,0.1-0.3,0.3c0,0.1,0.1,0.2,0.3,0.3c0.1,0,0.3-0.1,0.3-0.3
		C16.3,58.9,16.2,58.8,16.1,58.8z"/>
	<path class="st0" d="M18.2,58.8c-0.1,0-0.3,0.1-0.3,0.3c0,0.1,0.1,0.2,0.3,0.3c0.1,0,0.3-0.1,0.3-0.3
		C18.4,58.9,18.3,58.8,18.2,58.8z"/>
	<path class="st0" d="M16.7,57.9c0.1,0,0.3-0.1,0.3-0.3c0-0.1-0.1-0.2-0.3-0.3c-0.1,0-0.3,0.1-0.3,0.3
		C16.4,57.8,16.5,57.9,16.7,57.9z"/>
	<path class="st0" d="M17,58.9c0.1,0,0.3-0.1,0.3-0.3c0-0.1-0.1-0.2-0.3-0.3c-0.1,0-0.3,0.1-0.3,0.3C16.7,58.8,16.8,58.9,17,58.9z"
		/>
	<path class="st0" d="M15.4,57.8c0.1,0,0.3-0.1,0.3-0.3c0-0.1-0.1-0.2-0.3-0.3c-0.1,0-0.3,0.1-0.3,0.3
		C15.1,57.7,15.2,57.8,15.4,57.8z"/>
	<path class="st0" d="M15.8,56.4c-0.1,0-0.3,0.1-0.3,0.3c0,0.1,0.1,0.2,0.3,0.3c0.1,0,0.3-0.1,0.3-0.3C16,56.5,15.9,56.4,15.8,56.4z
		"/>
	<path class="st0" d="M17.6,56.3c-0.1,0-0.3,0.1-0.3,0.3c0,0.1,0.1,0.2,0.3,0.3c0.1,0,0.3-0.1,0.3-0.3
		C17.9,56.4,17.8,56.3,17.6,56.3z"/>
	<path class="st0" d="M16.7,55.1c0.1,0,0.3-0.1,0.3-0.3c0-0.1-0.1-0.2-0.3-0.3c-0.1,0-0.3,0.1-0.3,0.3
		C16.5,54.9,16.6,55.1,16.7,55.1z"/>
	<path class="st0" d="M17.8,53.6c0.1,0,0.3-0.1,0.3-0.3c0-0.1-0.1-0.2-0.3-0.3c-0.1,0-0.3,0.1-0.3,0.3
		C17.5,53.4,17.7,53.5,17.8,53.6z"/>
	<path class="st0" d="M17.6,51.8c0.1,0,0.3-0.1,0.3-0.3c0-0.1-0.1-0.2-0.3-0.3c-0.1,0-0.3,0.1-0.3,0.3
		C17.3,51.7,17.4,51.8,17.6,51.8z"/>
	<path class="st0" d="M17.6,48.9c-0.1,0-0.3,0.1-0.3,0.3c0,0.1,0.1,0.2,0.3,0.3c0.1,0,0.3-0.1,0.3-0.3C17.8,49,17.7,48.9,17.6,48.9z
		"/>
	<path class="st0" d="M19.8,48.8c0.1,0,0.3-0.1,0.3-0.3c0-0.1-0.1-0.2-0.3-0.3c-0.1,0-0.3,0.1-0.3,0.3
		C19.6,48.7,19.7,48.8,19.8,48.8z"/>
	<path class="st0" d="M20.1,49.7c0.1,0,0.3-0.1,0.3-0.3c0-0.1-0.1-0.2-0.3-0.3c-0.1,0-0.3,0.1-0.3,0.3
		C19.8,49.6,19.9,49.7,20.1,49.7z"/>
	<path class="st0" d="M21.6,48.6c-0.1,0-0.3,0.1-0.3,0.3c0,0.1,0.1,0.2,0.3,0.3c0.1,0,0.3-0.1,0.3-0.3
		C21.9,48.7,21.8,48.6,21.6,48.6z"/>
	<path class="st0" d="M23.4,49.7c0.1,0,0.3-0.1,0.3-0.3c0-0.1-0.1-0.2-0.3-0.3c-0.1,0-0.3,0.1-0.3,0.3
		C23.1,49.6,23.2,49.7,23.4,49.7z"/>
	<path class="st0" d="M21.6,49.9c0.1,0,0.3-0.1,0.3-0.3c0-0.1-0.1-0.2-0.3-0.3c-0.1,0-0.3,0.1-0.3,0.3
		C21.3,49.7,21.4,49.9,21.6,49.9z"/>
	<path class="st0" d="M24.4,49c0.1,0,0.3-0.1,0.3-0.3c0-0.1-0.1-0.2-0.3-0.3c-0.1,0-0.3,0.1-0.3,0.3C24.2,48.8,24.3,48.9,24.4,49z"
		/>
	<path class="st0" d="M19.6,59.1c0.1,0,0.3-0.1,0.3-0.3c0-0.1-0.1-0.2-0.3-0.3c-0.1,0-0.3,0.1-0.3,0.3C19.4,58.9,19.5,59,19.6,59.1z
		"/>
	<path class="st0" d="M21.7,60.1c-0.1,0-0.3,0.1-0.3,0.3c0,0.1,0.1,0.2,0.3,0.3c0.1,0,0.3-0.1,0.3-0.3C22,60.2,21.9,60.1,21.7,60.1z
		"/>
	<path class="st0" d="M19.2,59.7c-0.1,0-0.3,0.1-0.3,0.3c0,0.1,0.1,0.2,0.3,0.3c0.1,0,0.3-0.1,0.3-0.3
		C19.4,59.9,19.3,59.7,19.2,59.7z"/>
	<path class="st0" d="M20.1,60.4c-0.1,0-0.3,0.1-0.3,0.3c0,0.1,0.1,0.2,0.3,0.3c0.1,0,0.3-0.1,0.3-0.3
		C20.4,60.5,20.3,60.4,20.1,60.4z"/>
	<path class="st0" d="M18.2,61c0.1,0,0.3-0.1,0.3-0.3c0-0.1-0.1-0.2-0.3-0.3c-0.1,0-0.3,0.1-0.3,0.3C17.9,60.9,18,61,18.2,61z"/>
	<path class="st0" d="M21,60c0.1,0,0.3-0.1,0.3-0.3c0-0.1-0.1-0.2-0.3-0.3c-0.1,0-0.3,0.1-0.3,0.3C20.8,59.8,20.9,60,21,60z"/>
	<path class="st0" d="M21.6,61.7c0.1,0,0.3-0.1,0.3-0.3c0-0.1-0.1-0.2-0.3-0.3c-0.1,0-0.3,0.1-0.3,0.3
		C21.3,61.6,21.4,61.7,21.6,61.7z"/>
	<path class="st0" d="M22.4,61.8c0.1,0,0.3-0.1,0.3-0.3c0-0.1-0.1-0.2-0.3-0.3c-0.1,0-0.3,0.1-0.3,0.3
		C22.1,61.7,22.3,61.8,22.4,61.8z"/>
	<path class="st0" d="M22.5,63.3c-0.1,0-0.3,0.1-0.3,0.3c0,0.1,0.1,0.2,0.3,0.3c0.1,0,0.3-0.1,0.3-0.3
		C22.8,63.4,22.7,63.3,22.5,63.3z"/>
	<path class="st0" d="M21.8,64.1c-0.1,0-0.3,0.1-0.3,0.3c0,0.1,0.1,0.2,0.3,0.3c0.1,0,0.3-0.1,0.3-0.3C22,64.2,21.9,64.1,21.8,64.1z
		"/>
	<path class="st0" d="M20.6,66c0.1,0,0.3-0.1,0.3-0.3c0-0.1-0.1-0.2-0.3-0.3c-0.1,0-0.3,0.1-0.3,0.3C20.3,65.9,20.4,66,20.6,66z"/>
	<path class="st0" d="M19.5,65.8c0.1,0,0.3-0.1,0.3-0.3c0-0.1-0.1-0.2-0.3-0.3c-0.1,0-0.3,0.1-0.3,0.3
		C19.3,65.6,19.4,65.8,19.5,65.8z"/>
	<path class="st0" d="M20.6,64c-0.1,0-0.3,0.1-0.3,0.3c0,0.1,0.1,0.2,0.3,0.3c0.1,0,0.3-0.1,0.3-0.3C20.8,64.2,20.7,64,20.6,64z"/>
	<path class="st0" d="M22.8,64.8c0.1,0,0.3-0.1,0.3-0.3c0-0.1-0.1-0.2-0.3-0.3c-0.1,0-0.3,0.1-0.3,0.3
		C22.5,64.7,22.6,64.8,22.8,64.8z"/>
	<path class="st0" d="M22.9,62.2c-0.1,0-0.3,0.1-0.3,0.3c0,0.1,0.1,0.2,0.3,0.3c0.1,0,0.3-0.1,0.3-0.3
		C23.2,62.3,23.1,62.2,22.9,62.2z"/>
	<path class="st0" d="M17.6,57.6c-0.1,0-0.3,0.1-0.3,0.3c0,0.1,0.1,0.2,0.3,0.3c0.1,0,0.3-0.1,0.3-0.3
		C17.9,57.7,17.8,57.6,17.6,57.6z"/>
	<path class="st0" d="M16.6,56.1c0.1,0,0.3-0.1,0.3-0.3c0-0.1-0.1-0.2-0.3-0.3c-0.1,0-0.3,0.1-0.3,0.3C16.3,56,16.5,56.1,16.6,56.1z
		"/>
	<path class="st0" d="M18.6,54.3c0.1,0,0.3-0.1,0.3-0.3c0-0.1-0.1-0.2-0.3-0.3c-0.1,0-0.3,0.1-0.3,0.3
		C18.4,54.2,18.5,54.3,18.6,54.3z"/>
	<path class="st0" d="M17.7,54.1c-0.1,0-0.3,0.1-0.3,0.3c0,0.1,0.1,0.2,0.3,0.3c0.1,0,0.3-0.1,0.3-0.3C18,54.2,17.9,54.1,17.7,54.1z
		"/>
	<path class="st0" d="M16.9,52.8c-0.1,0-0.3,0.1-0.3,0.3c0,0.1,0.1,0.2,0.3,0.3c0.1,0,0.3-0.1,0.3-0.3C17.1,52.9,17,52.8,16.9,52.8z
		"/>
	<path class="st0" d="M10.9,63.7c0.1,0,0.3-0.1,0.3-0.3c0-0.1-0.1-0.2-0.3-0.3c-0.1,0-0.3,0.1-0.3,0.3
		C10.6,63.5,10.7,63.6,10.9,63.7z"/>
	<path class="st0" d="M11.6,64.7c0.1,0,0.3-0.1,0.3-0.3c0-0.1-0.1-0.2-0.3-0.3c-0.1,0-0.3,0.1-0.3,0.3
		C11.4,64.6,11.5,64.7,11.6,64.7z"/>
	<path class="st0" d="M13.4,64.9c0.1,0,0.3-0.1,0.3-0.3c0-0.1-0.1-0.2-0.3-0.3c-0.1,0-0.3,0.1-0.3,0.3
		C13.2,64.8,13.3,64.9,13.4,64.9z"/>
	<path class="st0" d="M12.5,65.2c0.1,0,0.3-0.1,0.3-0.3c0-0.1-0.1-0.2-0.3-0.3c-0.1,0-0.3,0.1-0.3,0.3
		C12.3,65.1,12.4,65.2,12.5,65.2z"/>
	<path class="st0" d="M12.5,63.2c-0.1,0-0.3,0.1-0.3,0.3c0,0.1,0.1,0.2,0.3,0.3c0.1,0,0.3-0.1,0.3-0.3
		C12.8,63.3,12.7,63.2,12.5,63.2z"/>
	<path class="st0" d="M11.8,62.8c-0.1,0-0.3,0.1-0.3,0.3c0,0.1,0.1,0.2,0.3,0.3c0.1,0,0.3-0.1,0.3-0.3C12,62.9,11.9,62.8,11.8,62.8z
		"/>
	<path class="st0" d="M10.4,62.1c0.1,0,0.3-0.1,0.3-0.3c0-0.1-0.1-0.2-0.3-0.3c-0.1,0-0.3,0.1-0.3,0.3C10.2,62,10.3,62.1,10.4,62.1z
		"/>
	<path class="st0" d="M10.8,60.6c-0.1,0-0.3,0.1-0.3,0.3c0,0.1,0.1,0.2,0.3,0.3c0.1,0,0.3-0.1,0.3-0.3C11,60.8,10.9,60.6,10.8,60.6z
		"/>
	<path class="st0" d="M11.2,59.2c-0.1,0-0.3,0.1-0.3,0.3c0,0.1,0.1,0.2,0.3,0.3c0.1,0,0.3-0.1,0.3-0.3
		C11.5,59.3,11.4,59.2,11.2,59.2z"/>
	<path class="st0" d="M11.8,58.2c-0.1,0-0.3,0.1-0.3,0.3c0,0.1,0.1,0.2,0.3,0.3c0.1,0,0.3-0.1,0.3-0.3C12.1,58.3,12,58.2,11.8,58.2z
		"/>
	<path class="st0" d="M14.7,65.5c0.1,0,0.3-0.1,0.3-0.3c0-0.1-0.1-0.2-0.3-0.3c-0.1,0-0.3,0.1-0.3,0.3
		C14.5,65.4,14.6,65.5,14.7,65.5z"/>
	<path class="st0" d="M15.7,64.9c0.1,0,0.3-0.1,0.3-0.3c0-0.1-0.1-0.2-0.3-0.3c-0.1,0-0.3,0.1-0.3,0.3
		C15.4,64.7,15.5,64.9,15.7,64.9z"/>
	<path class="st0" d="M14.3,63.8c-0.1,0-0.3,0.1-0.3,0.3c0,0.1,0.1,0.2,0.3,0.3c0.1,0,0.3-0.1,0.3-0.3
		C14.5,63.9,14.4,63.8,14.3,63.8z"/>
	<path class="st0" d="M17.3,65.5c0.1,0,0.3-0.1,0.3-0.3c0-0.1-0.1-0.2-0.3-0.3c-0.1,0-0.3,0.1-0.3,0.3
		C17.1,65.4,17.2,65.5,17.3,65.5z"/>
	<path class="st0" d="M18.8,65.2c0.1,0,0.3-0.1,0.3-0.3c0-0.1-0.1-0.2-0.3-0.3c-0.1,0-0.3,0.1-0.3,0.3
		C18.5,65.1,18.6,65.2,18.8,65.2z"/>
	<path class="st0" d="M19.8,66.4c0.1,0,0.3-0.1,0.3-0.3c0-0.1-0.1-0.2-0.3-0.3c-0.1,0-0.3,0.1-0.3,0.3
		C19.6,66.3,19.7,66.4,19.8,66.4z"/>
	<path class="st0" d="M21.6,65.9c0.1,0,0.3-0.1,0.3-0.3c0-0.1-0.1-0.2-0.3-0.3c-0.1,0-0.3,0.1-0.3,0.3
		C21.3,65.8,21.4,65.9,21.6,65.9z"/>
	<path class="st0" d="M25,47.1c-0.1,0-0.3,0.1-0.3,0.3c0,0.1,0.1,0.2,0.3,0.3c0.1,0,0.3-0.1,0.3-0.3C25.2,47.2,25.1,47.1,25,47.1z"
		/>
	<path class="st0" d="M23.9,48.1c0.1,0,0.3-0.1,0.3-0.3c0-0.1-0.1-0.2-0.3-0.3c-0.1,0-0.3,0.1-0.3,0.3C23.7,48,23.8,48.1,23.9,48.1z
		"/>
	<path class="st0" d="M20.8,48.1c0.1,0,0.3-0.1,0.3-0.3c0-0.1-0.1-0.2-0.3-0.3c-0.1,0-0.3,0.1-0.3,0.3C20.6,48,20.7,48.1,20.8,48.1z
		"/>
	<path class="st0" d="M19.3,47.1c-0.1,0-0.3,0.1-0.3,0.3c0,0.1,0.1,0.2,0.3,0.3c0.1,0,0.3-0.1,0.3-0.3
		C19.5,47.2,19.4,47.1,19.3,47.1z"/>
	<path class="st0" d="M34.5,91c0.1,0,0.3-0.1,0.3-0.3c0-0.1-0.1-0.2-0.3-0.3c-0.1,0-0.3,0.1-0.3,0.3C34.3,90.9,34.4,91,34.5,91z"/>
	<path class="st0" d="M38.7,90c0.1,0,0.3-0.1,0.3-0.3c0-0.1-0.1-0.2-0.3-0.3c-0.1,0-0.3,0.1-0.3,0.3C38.5,89.9,38.6,90,38.7,90z"/>
	<path class="st0" d="M36.9,90.7c0.1,0,0.3-0.1,0.3-0.3c0-0.1-0.1-0.2-0.3-0.3c-0.1,0-0.3,0.1-0.3,0.3
		C36.7,90.6,36.8,90.7,36.9,90.7z"/>
	<path class="st0" d="M36.8,88.3c0.1,0,0.3-0.1,0.3-0.3c0-0.1-0.1-0.2-0.3-0.3c-0.1,0-0.3,0.1-0.3,0.3
		C36.5,88.2,36.7,88.3,36.8,88.3z"/>
	<path class="st0" d="M35.7,89.8c0.1,0,0.3-0.1,0.3-0.3c0-0.1-0.1-0.2-0.3-0.3c-0.1,0-0.3,0.1-0.3,0.3
		C35.5,89.7,35.6,89.8,35.7,89.8z"/>
	<path class="st0" d="M38.2,89c0.1,0,0.3-0.1,0.3-0.3c0-0.1-0.1-0.2-0.3-0.3c-0.1,0-0.3,0.1-0.3,0.3C38,88.9,38.1,89,38.2,89z"/>
	<path class="st0" d="M37.8,89.5c0.1,0,0.3-0.1,0.3-0.3c0-0.1-0.1-0.2-0.3-0.3c-0.1,0-0.3,0.1-0.3,0.3
		C37.5,89.4,37.6,89.5,37.8,89.5z"/>
	<path class="st0" d="M39.7,89.3c0.1,0,0.3-0.1,0.3-0.3c0-0.1-0.1-0.2-0.3-0.3c-0.1,0-0.3,0.1-0.3,0.3
		C39.4,89.2,39.5,89.3,39.7,89.3z"/>
	<path class="st0" d="M41.4,89.3c0.1,0,0.3-0.1,0.3-0.3c0-0.1-0.1-0.2-0.3-0.3c-0.1,0-0.3,0.1-0.3,0.3
		C41.1,89.2,41.2,89.3,41.4,89.3z"/>
	<path class="st0" d="M40.5,88.7c0.1,0,0.3-0.1,0.3-0.3c0-0.1-0.1-0.2-0.3-0.3c-0.1,0-0.3,0.1-0.3,0.3
		C40.2,88.6,40.3,88.7,40.5,88.7z"/>
	<path class="st0" d="M42.8,88.8c0.1,0,0.3-0.1,0.3-0.3c0-0.1-0.1-0.2-0.3-0.3c-0.1,0-0.3,0.1-0.3,0.3
		C42.6,88.6,42.7,88.7,42.8,88.8z"/>
	<path class="st0" d="M41.8,87.7c-0.1,0-0.3,0.1-0.3,0.3c0,0.1,0.1,0.2,0.3,0.3c0.1,0,0.3-0.1,0.3-0.3C42.1,87.8,42,87.7,41.8,87.7z
		"/>
	<path class="st0" d="M46.2,88.3c0.1,0,0.3-0.1,0.3-0.3c0-0.1-0.1-0.2-0.3-0.3c-0.1,0-0.3,0.1-0.3,0.3C46,88.2,46.1,88.3,46.2,88.3z
		"/>
	<path class="st0" d="M44.2,88c0.1,0,0.3-0.1,0.3-0.3c0-0.1-0.1-0.2-0.3-0.3c-0.1,0-0.3,0.1-0.3,0.3C43.9,87.9,44,88,44.2,88z"/>
	<path class="st0" d="M44.2,88.9c0.1,0,0.3-0.1,0.3-0.3c0-0.1-0.1-0.2-0.3-0.3c-0.1,0-0.3,0.1-0.3,0.3C43.9,88.8,44,88.9,44.2,88.9z
		"/>
	<path class="st0" d="M46.4,86.5c-0.1,0-0.3,0.1-0.3,0.3c0,0.1,0.1,0.2,0.3,0.3c0.1,0,0.3-0.1,0.3-0.3
		C46.6,86.6,46.5,86.5,46.4,86.5z"/>
	<path class="st0" d="M49,86.5c-0.1,0-0.3,0.1-0.3,0.3c0,0.1,0.1,0.2,0.3,0.3c0.1,0,0.3-0.1,0.3-0.3C49.2,86.6,49.1,86.5,49,86.5z"
		/>
	<path class="st0" d="M37.7,85.5c0.1,0,0.3-0.1,0.3-0.3c0-0.1-0.1-0.2-0.3-0.3c-0.1,0-0.3,0.1-0.3,0.3
		C37.4,85.4,37.6,85.5,37.7,85.5z"/>
	<path class="st0" d="M35.4,84.8c0.1,0,0.3-0.1,0.3-0.3c0-0.1-0.1-0.2-0.3-0.3c-0.1,0-0.3,0.1-0.3,0.3
		C35.2,84.6,35.3,84.8,35.4,84.8z"/>
	<path class="st0" d="M35.4,81.6c-0.1,0-0.3,0.1-0.3,0.3c0,0.1,0.1,0.2,0.3,0.3c0.1,0,0.3-0.1,0.3-0.3
		C35.7,81.7,35.6,81.6,35.4,81.6z"/>
	<path class="st0" d="M36.5,83.2c0.1,0,0.3-0.1,0.3-0.3c0-0.1-0.1-0.2-0.3-0.3c-0.1,0-0.3,0.1-0.3,0.3
		C36.2,83.1,36.4,83.2,36.5,83.2z"/>
	<path class="st0" d="M35.4,87.2c0.1,0,0.3-0.1,0.3-0.3c0-0.1-0.1-0.2-0.3-0.3c-0.1,0-0.3,0.1-0.3,0.3
		C35.2,87.1,35.3,87.2,35.4,87.2z"/>
	<path class="st0" d="M34.3,88.7c0.1,0,0.3-0.1,0.3-0.3c0-0.1-0.1-0.2-0.3-0.3c-0.1,0-0.3,0.1-0.3,0.3
		C34.1,88.6,34.2,88.7,34.3,88.7z"/>
	<path class="st0" d="M32.8,91.4c0.1,0,0.3-0.1,0.3-0.3c0-0.1-0.1-0.2-0.3-0.3c-0.1,0-0.3,0.1-0.3,0.3
		C32.5,91.3,32.7,91.4,32.8,91.4z"/>
	<path class="st0" d="M30.8,90.7c0.1,0,0.3-0.1,0.3-0.3c0-0.1-0.1-0.2-0.3-0.3c-0.1,0-0.3,0.1-0.3,0.3
		C30.6,90.6,30.7,90.7,30.8,90.7z"/>
	<path class="st0" d="M32.9,89.1c-0.1,0-0.3,0.1-0.3,0.3c0,0.1,0.1,0.2,0.3,0.3c0.1,0,0.3-0.1,0.3-0.3C33.1,89.2,33,89.1,32.9,89.1z
		"/>
	<path class="st0" d="M37.2,86.9c-0.1,0-0.3,0.1-0.3,0.3c0,0.1,0.1,0.2,0.3,0.3c0.1,0,0.3-0.1,0.3-0.3C37.5,87,37.4,86.9,37.2,86.9z
		"/>
	<path class="st0" d="M40.1,87.7c0.1,0,0.3-0.1,0.3-0.3c0-0.1-0.1-0.2-0.3-0.3c-0.1,0-0.3,0.1-0.3,0.3C39.9,87.6,40,87.7,40.1,87.7z
		"/>
	<path class="st0" d="M36.9,51c0.1,0,0.3-0.1,0.3-0.3c0-0.1-0.1-0.2-0.3-0.3c-0.1,0-0.3,0.1-0.3,0.3C36.7,50.9,36.8,51,36.9,51z"/>
	<path class="st0" d="M37.6,54.5c0.1,0,0.3-0.1,0.3-0.3c0-0.1-0.1-0.2-0.3-0.3c-0.1,0-0.3,0.1-0.3,0.3
		C37.4,54.3,37.5,54.5,37.6,54.5z"/>
	<path class="st0" d="M32.4,58.2c0.1,0,0.3-0.1,0.3-0.3c0-0.1-0.1-0.2-0.3-0.3c-0.1,0-0.3,0.1-0.3,0.3
		C32.2,58.1,32.3,58.2,32.4,58.2z"/>
	<path class="st0" d="M37.4,58.7c0.1,0,0.3-0.1,0.3-0.3c0-0.1-0.1-0.2-0.3-0.3c-0.1,0-0.3,0.1-0.3,0.3
		C37.1,58.6,37.3,58.7,37.4,58.7z"/>
	<path class="st0" d="M34.8,54.9c0.1,0,0.3-0.1,0.3-0.3c0-0.1-0.1-0.2-0.3-0.3c-0.1,0-0.3,0.1-0.3,0.3
		C34.5,54.8,34.6,54.9,34.8,54.9z"/>
	<path class="st0" d="M34.5,58.1c0.1,0,0.3-0.1,0.3-0.3c0-0.1-0.1-0.2-0.3-0.3c-0.1,0-0.3,0.1-0.3,0.3C34.2,58,34.3,58.1,34.5,58.1z
		"/>
	<path class="st0" d="M32.6,62.1c0.1,0,0.3-0.1,0.3-0.3c0-0.1-0.1-0.2-0.3-0.3c-0.1,0-0.3,0.1-0.3,0.3C32.4,62,32.5,62.1,32.6,62.1z
		"/>
	<path class="st0" d="M28.1,62.1c0.1,0,0.3-0.1,0.3-0.3c0-0.1-0.1-0.2-0.3-0.3c-0.1,0-0.3,0.1-0.3,0.3C27.9,62,28,62.1,28.1,62.1z"
		/>
	<path class="st0" d="M33.1,65c0.1,0,0.3-0.1,0.3-0.3c0-0.1-0.1-0.2-0.3-0.3c-0.1,0-0.3,0.1-0.3,0.3C32.8,64.9,33,65,33.1,65z"/>
	<path class="st0" d="M35.3,63.7c-0.1,0-0.3,0.1-0.3,0.3c0,0.1,0.1,0.2,0.3,0.3c0.1,0,0.3-0.1,0.3-0.3
		C35.5,63.8,35.4,63.7,35.3,63.7z"/>
	<path class="st0" d="M39.4,64.2c0.1,0,0.3-0.1,0.3-0.3c0-0.1-0.1-0.2-0.3-0.3c-0.1,0-0.3,0.1-0.3,0.3
		C39.2,64.1,39.3,64.2,39.4,64.2z"/>
	<path class="st0" d="M35.5,61.2c0.1,0,0.3-0.1,0.3-0.3c0-0.1-0.1-0.2-0.3-0.3c-0.1,0-0.3,0.1-0.3,0.3C35.3,61,35.4,61.2,35.5,61.2z
		"/>
	<path class="st0" d="M37.9,61.5c0.1,0,0.3-0.1,0.3-0.3c0-0.1-0.1-0.2-0.3-0.3c-0.1,0-0.3,0.1-0.3,0.3
		C37.7,61.4,37.8,61.5,37.9,61.5z"/>
	<path class="st0" d="M40.8,59.1c-0.1,0-0.3,0.1-0.3,0.3c0,0.1,0.1,0.2,0.3,0.3c0.1,0,0.3-0.1,0.3-0.3C41,59.2,40.9,59.1,40.8,59.1z
		"/>
	<path class="st0" d="M45.3,47.9c0.1,0,0.2-0.1,0.2-0.2c0-0.1-0.1-0.2-0.2-0.2c-0.1,0-0.2,0.1-0.2,0.2
		C45.1,47.8,45.2,47.9,45.3,47.9z"/>
	<path class="st0" d="M39.7,56.3c0.1,0,0.3-0.1,0.3-0.3c0-0.1-0.1-0.2-0.3-0.3c-0.1,0-0.3,0.1-0.3,0.3
		C39.5,56.2,39.6,56.3,39.7,56.3z"/>
	<path class="st0" d="M41.6,54.4c0.1,0,0.3-0.1,0.3-0.3c0-0.1-0.1-0.2-0.3-0.3c-0.1,0-0.3,0.1-0.3,0.3
		C41.4,54.3,41.5,54.4,41.6,54.4z"/>
	<path class="st0" d="M40,52.4c0.1,0,0.2-0.1,0.2-0.2c0-0.1-0.1-0.2-0.2-0.2c-0.1,0-0.2,0.1-0.2,0.2C39.8,52.3,39.9,52.4,40,52.4z"
		/>
	<path class="st0" d="M38.8,48.9c0.1,0,0.3-0.1,0.3-0.3c0-0.1-0.1-0.2-0.3-0.3c-0.1,0-0.3,0.1-0.3,0.3
		C38.6,48.8,38.7,48.9,38.8,48.9z"/>
	<path class="st0" d="M36.4,47.6c0.1,0,0.3-0.1,0.3-0.3c0-0.1-0.1-0.2-0.3-0.3c-0.1,0-0.3,0.1-0.3,0.3
		C36.2,47.5,36.3,47.6,36.4,47.6z"/>
	<path class="st0" d="M37.6,51.8c0.1,0,0.3-0.1,0.3-0.3c0-0.1-0.1-0.2-0.3-0.3c-0.1,0-0.3,0.1-0.3,0.3
		C37.4,51.7,37.5,51.8,37.6,51.8z"/>
	<path class="st0" d="M39.7,53.5c0.1,0,0.3-0.1,0.3-0.3c0-0.1-0.1-0.2-0.3-0.3c-0.1,0-0.3,0.1-0.3,0.3
		C39.5,53.4,39.6,53.5,39.7,53.5z"/>
	<path class="st0" d="M36.6,54.5c-0.1,0-0.3,0.1-0.3,0.3c0,0.1,0.1,0.2,0.3,0.3c0.1,0,0.3-0.1,0.3-0.3
		C36.8,54.7,36.7,54.5,36.6,54.5z"/>
	<path class="st0" d="M36,53.4c0.1,0,0.3-0.1,0.3-0.3c0-0.1-0.1-0.2-0.3-0.3c-0.1,0-0.3,0.1-0.3,0.3C35.8,53.3,35.9,53.4,36,53.4z"
		/>
	<path class="st0" d="M40.9,51.2c0.1,0,0.2-0.1,0.2-0.2c0-0.1-0.1-0.2-0.2-0.2c-0.1,0-0.2,0.1-0.2,0.2
		C40.7,51.1,40.8,51.1,40.9,51.2z"/>
	<path class="st0" d="M44.8,44.9c0.1,0,0.2-0.1,0.2-0.2c0-0.1-0.1-0.2-0.2-0.2c-0.1,0-0.2,0.1-0.2,0.2
		C44.7,44.8,44.7,44.9,44.8,44.9z"/>
	<path class="st0" d="M38.2,51.1c0.1,0,0.3-0.1,0.3-0.3c0-0.1-0.1-0.2-0.3-0.3c-0.1,0-0.3,0.1-0.3,0.3C38,50.9,38.1,51.1,38.2,51.1z
		"/>
	<path class="st0" d="M38.3,53.3c0.1,0,0.3-0.1,0.3-0.3c0-0.1-0.1-0.2-0.3-0.3c-0.1,0-0.3,0.1-0.3,0.3C38,53.2,38.2,53.3,38.3,53.3z
		"/>
	<path class="st0" d="M39.9,55.1c-0.1,0-0.3,0.1-0.3,0.3c0,0.1,0.1,0.2,0.3,0.3c0.1,0,0.3-0.1,0.3-0.3C40.1,55.2,40,55.1,39.9,55.1z
		"/>
	<path class="st0" d="M42.3,57.5c0.1,0,0.2-0.1,0.2-0.2c0-0.1-0.1-0.2-0.2-0.2c-0.1,0-0.2,0.1-0.2,0.2
		C42.1,57.4,42.2,57.5,42.3,57.5z"/>
	<path class="st0" d="M40.5,58.5c0.1,0,0.3-0.1,0.3-0.3c0-0.1-0.1-0.2-0.3-0.3c-0.1,0-0.3,0.1-0.3,0.3
		C40.2,58.3,40.3,58.4,40.5,58.5z"/>
	<path class="st0" d="M42.8,60.5c0.1,0,0.3-0.1,0.3-0.3c0-0.1-0.1-0.2-0.3-0.3c-0.1,0-0.3,0.1-0.3,0.3
		C42.6,60.4,42.7,60.5,42.8,60.5z"/>
	<path class="st0" d="M40.1,61.2c0.1,0,0.3-0.1,0.3-0.3c0-0.1-0.1-0.2-0.3-0.3c-0.1,0-0.3,0.1-0.3,0.3C39.9,61.1,40,61.2,40.1,61.2z
		"/>
	<path class="st0" d="M39,59.4c0.1,0,0.3-0.1,0.3-0.3c0-0.1-0.1-0.2-0.3-0.3c-0.1,0-0.3,0.1-0.3,0.3C38.8,59.3,38.9,59.4,39,59.4z"
		/>
	<path class="st0" d="M37.7,56.8c0.1,0,0.3-0.1,0.3-0.3c0-0.1-0.1-0.2-0.3-0.3c-0.1,0-0.3,0.1-0.3,0.3
		C37.4,56.7,37.6,56.8,37.7,56.8z"/>
	<path class="st0" d="M35.8,56.9c0.1,0,0.3-0.1,0.3-0.3c0-0.1-0.1-0.2-0.3-0.3c-0.1,0-0.3,0.1-0.3,0.3
		C35.6,56.8,35.7,56.9,35.8,56.9z"/>
	<path class="st0" d="M36.4,58.8c0.1,0,0.3-0.1,0.3-0.3c0-0.1-0.1-0.2-0.3-0.3c-0.1,0-0.3,0.1-0.3,0.3
		C36.2,58.7,36.3,58.8,36.4,58.8z"/>
	<path class="st0" d="M37.1,62.2c-0.1,0-0.3,0.1-0.3,0.3c0,0.1,0.1,0.2,0.3,0.3c0.1,0,0.3-0.1,0.3-0.3
		C37.3,62.3,37.2,62.2,37.1,62.2z"/>
	<path class="st0" d="M34.9,62.8c0.1,0,0.3-0.1,0.3-0.3c0-0.1-0.1-0.2-0.3-0.3c-0.1,0-0.3,0.1-0.3,0.3
		C34.7,62.7,34.8,62.8,34.9,62.8z"/>
	<path class="st0" d="M34,61c0.1,0,0.3-0.1,0.3-0.3c0-0.1-0.1-0.2-0.3-0.3c-0.1,0-0.3,0.1-0.3,0.3C33.8,60.9,33.9,61,34,61z"/>
	<path class="st0" d="M31.7,64.5c0.1,0,0.3-0.1,0.3-0.3c0-0.1-0.1-0.2-0.3-0.3c-0.1,0-0.3,0.1-0.3,0.3
		C31.4,64.4,31.5,64.5,31.7,64.5z"/>
	<path class="st0" d="M31.3,63c0.1,0,0.3-0.1,0.3-0.3c0-0.1-0.1-0.2-0.3-0.3c-0.1,0-0.3,0.1-0.3,0.3C31,62.9,31.1,63,31.3,63z"/>
	<path class="st0" d="M29.1,63.9c0.1,0,0.3-0.1,0.3-0.3c0-0.1-0.1-0.2-0.3-0.3c-0.1,0-0.3,0.1-0.3,0.3C28.9,63.8,29,63.9,29.1,63.9z
		"/>
	<path class="st0" d="M30.5,60.9c0.1,0,0.3-0.1,0.3-0.3c0-0.1-0.1-0.2-0.3-0.3c-0.1,0-0.3,0.1-0.3,0.3
		C30.2,60.8,30.3,60.9,30.5,60.9z"/>
	<path class="st0" d="M38.5,64.3c-0.1,0-0.3,0.1-0.3,0.3c0,0.1,0.1,0.2,0.3,0.3c0.1,0,0.3-0.1,0.3-0.3
		C38.8,64.4,38.7,64.3,38.5,64.3z"/>
	<path class="st0" d="M35.3,65.9c0.1,0,0.3-0.1,0.3-0.3c0-0.1-0.1-0.2-0.3-0.3c-0.1,0-0.3,0.1-0.3,0.3C35,65.8,35.1,65.9,35.3,65.9z
		"/>
	<path class="st0" d="M42.1,62.6c0.1,0,0.3-0.1,0.3-0.3c0-0.1-0.1-0.2-0.3-0.3c-0.1,0-0.3,0.1-0.3,0.3
		C41.8,62.5,41.9,62.6,42.1,62.6z"/>
	<path class="st0" d="M41.5,60c0.1,0,0.3-0.1,0.3-0.3c0-0.1-0.1-0.2-0.3-0.3c-0.1,0-0.3,0.1-0.3,0.3C41.3,59.8,41.4,60,41.5,60z"/>
	<path class="st0" d="M45.9,57.9c0.1,0,0.3-0.1,0.3-0.3c0-0.1-0.1-0.2-0.3-0.3c-0.1,0-0.3,0.1-0.3,0.3
		C45.7,57.8,45.8,57.9,45.9,57.9z"/>
	<path class="st0" d="M45.3,54.3c0.1,0,0.2-0.1,0.2-0.2c0-0.1-0.1-0.2-0.2-0.2c-0.1,0-0.2,0.1-0.2,0.2
		C45.1,54.2,45.2,54.3,45.3,54.3z"/>
	<path class="st0" d="M47.1,53.2c0.1,0,0.2-0.1,0.2-0.2c0-0.1-0.1-0.2-0.2-0.2c-0.1,0-0.2,0.1-0.2,0.2C46.9,53.1,47,53.2,47.1,53.2z
		"/>
	<path class="st0" d="M47.4,50.5c0.1,0,0.2-0.1,0.2-0.2c0-0.1-0.1-0.2-0.2-0.2c-0.1,0-0.2,0.1-0.2,0.2
		C47.2,50.4,47.3,50.5,47.4,50.5z"/>
	<path class="st0" d="M44.4,53.2c0.1,0,0.2-0.1,0.2-0.2c0-0.1-0.1-0.2-0.2-0.2c-0.1,0-0.2,0.1-0.2,0.2
		C44.2,53.1,44.3,53.2,44.4,53.2z"/>
	<path class="st0" d="M42.8,52.4c0.1,0,0.2-0.1,0.2-0.2c0-0.1-0.1-0.2-0.2-0.2c-0.1,0-0.2,0.1-0.2,0.2
		C42.6,52.3,42.7,52.4,42.8,52.4z"/>
	<path class="st0" d="M44.8,50.9c0.1,0,0.2-0.1,0.2-0.2c0-0.1-0.1-0.2-0.2-0.2c-0.1,0-0.2,0.1-0.2,0.2
		C44.7,50.8,44.7,50.9,44.8,50.9z"/>
	<path class="st0" d="M42.8,47c0.1,0,0.2-0.1,0.2-0.2c0-0.1-0.1-0.2-0.2-0.2c-0.1,0-0.2,0.1-0.2,0.2C42.6,46.9,42.7,47,42.8,47z"/>
	<path class="st0" d="M43.6,55.4c0.1,0,0.2-0.1,0.2-0.2c0-0.1-0.1-0.2-0.2-0.2c-0.1,0-0.2,0.1-0.2,0.2
		C43.4,55.3,43.5,55.4,43.6,55.4z"/>
	<path class="st0" d="M44.6,56.7c-0.1,0-0.3,0.1-0.3,0.3c0,0.1,0.1,0.2,0.3,0.3c0.1,0,0.3-0.1,0.3-0.3
		C44.8,56.8,44.7,56.7,44.6,56.7z"/>
	<path class="st0" d="M43.6,59.1c0.1,0,0.3-0.1,0.3-0.3c0-0.1-0.1-0.2-0.3-0.3c-0.1,0-0.3,0.1-0.3,0.3C43.3,58.9,43.4,59,43.6,59.1z
		"/>
	<path class="st0" d="M45.3,56.1c0.1,0,0.3-0.1,0.3-0.3c0-0.1-0.1-0.2-0.3-0.3c-0.1,0-0.3,0.1-0.3,0.3C45.1,56,45.2,56.1,45.3,56.1z
		"/>
	<path class="st0" d="M46.7,56.1c0.1,0,0.2-0.1,0.2-0.2c0-0.1-0.1-0.2-0.2-0.2c-0.1,0-0.2,0.1-0.2,0.2C46.5,56,46.6,56.1,46.7,56.1z
		"/>
	<path class="st0" d="M42.4,50.5c0.1,0,0.2-0.1,0.2-0.2c0-0.1-0.1-0.2-0.2-0.2c-0.1,0-0.2,0.1-0.2,0.2
		C42.2,50.4,42.3,50.5,42.4,50.5z"/>
	<path class="st0" d="M22.4,47.7c-0.1,0-0.3,0.1-0.3,0.3c0,0.1,0.1,0.2,0.3,0.3c0.1,0,0.3-0.1,0.3-0.3
		C22.7,47.9,22.6,47.7,22.4,47.7z"/>
	<path class="st0" d="M23.2,48c0.1,0,0.3-0.1,0.3-0.3c0-0.1-0.1-0.2-0.3-0.3c-0.1,0-0.3,0.1-0.3,0.3C22.9,47.9,23,48,23.2,48z"/>
	<path class="st0" d="M23.8,47.5c0.1,0,0.3-0.1,0.3-0.3c0-0.1-0.1-0.2-0.3-0.3c-0.1,0-0.3,0.1-0.3,0.3
		C23.6,47.4,23.7,47.5,23.8,47.5z"/>
	<path class="st0" d="M24.4,46.4c-0.1,0-0.3,0.1-0.3,0.3c0,0.1,0.1,0.2,0.3,0.3c0.1,0,0.3-0.1,0.3-0.3
		C24.7,46.5,24.6,46.4,24.4,46.4z"/>
	<path class="st0" d="M23.6,46.1c-0.1,0-0.3,0.1-0.3,0.3c0,0.1,0.1,0.2,0.3,0.3c0.1,0,0.3-0.1,0.3-0.3
		C23.8,46.3,23.7,46.1,23.6,46.1z"/>
	<path class="st0" d="M25.7,47.6c0.1,0,0.3-0.1,0.3-0.3c0-0.1-0.1-0.2-0.3-0.3c-0.1,0-0.3,0.1-0.3,0.3
		C25.4,47.5,25.5,47.6,25.7,47.6z"/>
	<path class="st0" d="M21.9,47.8c-0.1,0-0.3,0.1-0.3,0.3c0,0.1,0.1,0.2,0.3,0.3c0.1,0,0.3-0.1,0.3-0.3
		C22.2,47.9,22.1,47.8,21.9,47.8z"/>
	<path class="st0" d="M21.1,48.4c-0.1,0-0.3,0.1-0.3,0.3c0,0.1,0.1,0.2,0.3,0.3c0.1,0,0.3-0.1,0.3-0.3
		C21.4,48.5,21.3,48.4,21.1,48.4z"/>
	<path class="st0" d="M22.8,48.9c0.1,0,0.3-0.1,0.3-0.3c0-0.1-0.1-0.2-0.3-0.3c-0.1,0-0.3,0.1-0.3,0.3
		C22.5,48.8,22.6,48.9,22.8,48.9z"/>
	<path class="st0" d="M20,47.6c-0.1,0-0.3,0.1-0.3,0.3c0,0.1,0.1,0.2,0.3,0.3c0.1,0,0.3-0.1,0.3-0.3C20.2,47.7,20.1,47.6,20,47.6z"
		/>
	<path class="st0" d="M28,67c0.1,0,0.3-0.1,0.3-0.3c0-0.1-0.1-0.2-0.3-0.3c-0.1,0-0.3,0.1-0.3,0.3C27.7,66.9,27.8,67,28,67z"/>
	<path class="st0" d="M30.8,68.9c0.1,0,0.3-0.1,0.3-0.3c0-0.1-0.1-0.2-0.3-0.3c-0.1,0-0.3,0.1-0.3,0.3
		C30.5,68.8,30.7,68.9,30.8,68.9z"/>
	<path class="st0" d="M29,69.7c0.1,0,0.3-0.1,0.3-0.3c0-0.1-0.1-0.2-0.3-0.3c-0.1,0-0.3,0.1-0.3,0.3C28.7,69.6,28.9,69.7,29,69.7z"
		/>
	<path class="st0" d="M26.7,68.4c0.1,0,0.3-0.1,0.3-0.3c0-0.1-0.1-0.2-0.3-0.3c-0.1,0-0.3,0.1-0.3,0.3
		C26.4,68.3,26.5,68.4,26.7,68.4z"/>
	<path class="st0" d="M24.6,67.6c0.1,0,0.3-0.1,0.3-0.3c0-0.1-0.1-0.2-0.3-0.3c-0.1,0-0.3,0.1-0.3,0.3
		C24.3,67.5,24.4,67.6,24.6,67.6z"/>
	<path class="st0" d="M22.8,67.6c0.1,0,0.3-0.1,0.3-0.3c0-0.1-0.1-0.2-0.3-0.3c-0.1,0-0.3,0.1-0.3,0.3
		C22.6,67.5,22.7,67.6,22.8,67.6z"/>
	<path class="st0" d="M21.4,67.8c0.1,0,0.3-0.1,0.3-0.3c0-0.1-0.1-0.2-0.3-0.3c-0.1,0-0.3,0.1-0.3,0.3
		C21.2,67.7,21.3,67.8,21.4,67.8z"/>
	<path class="st0" d="M19.9,67.5c-0.1,0-0.3,0.1-0.3,0.3c0,0.1,0.1,0.2,0.3,0.3c0.1,0,0.3-0.1,0.3-0.3C20.1,67.6,20,67.5,19.9,67.5z
		"/>
	<path class="st0" d="M20.7,68.3c-0.1,0-0.3,0.1-0.3,0.3c0,0.1,0.1,0.2,0.3,0.3c0.1,0,0.3-0.1,0.3-0.3
		C20.9,68.4,20.8,68.3,20.7,68.3z"/>
	<path class="st0" d="M20.3,69.4c0.1,0,0.3-0.1,0.3-0.3c0-0.1-0.1-0.2-0.3-0.3c-0.1,0-0.3,0.1-0.3,0.3C20,69.3,20.1,69.4,20.3,69.4z
		"/>
	<path class="st0" d="M22.2,67c0.1,0,0.3-0.1,0.3-0.3c0-0.1-0.1-0.2-0.3-0.3c-0.1,0-0.3,0.1-0.3,0.3C22,66.9,22.1,67,22.2,67z"/>
	<path class="st0" d="M20.3,71.1c0.1,0,0.3-0.1,0.3-0.3c0-0.1-0.1-0.2-0.3-0.3c-0.1,0-0.3,0.1-0.3,0.3C20.1,71,20.2,71.1,20.3,71.1z
		"/>
	<path class="st0" d="M26.3,79.9c-0.1,0-0.3,0.1-0.3,0.3c0,0.1,0.1,0.2,0.3,0.3c0.1,0,0.3-0.1,0.3-0.3C26.5,80,26.4,79.9,26.3,79.9z
		"/>
	<path class="st0" d="M27,81c0.1,0,0.3-0.1,0.3-0.3c0-0.1-0.1-0.2-0.3-0.3c-0.1,0-0.3,0.1-0.3,0.3C26.8,80.9,26.9,81,27,81z"/>
	<path class="st0" d="M26,81c-0.1,0-0.3,0.1-0.3,0.3c0,0.1,0.1,0.2,0.3,0.3c0.1,0,0.3-0.1,0.3-0.3C26.3,81.1,26.2,81,26,81z"/>
	<path class="st0" d="M28,78.5c-0.1,0-0.3,0.1-0.3,0.3c0,0.1,0.1,0.2,0.3,0.3c0.1,0,0.3-0.1,0.3-0.3C28.3,78.6,28.2,78.5,28,78.5z"
		/>
	<path class="st0" d="M27.3,77.9c0.1,0,0.3-0.1,0.3-0.3c0-0.1-0.1-0.2-0.3-0.3c-0.1,0-0.3,0.1-0.3,0.3C27,77.8,27.2,77.9,27.3,77.9z
		"/>
	<path class="st0" d="M27.1,78.8c-0.1,0-0.3,0.1-0.3,0.3c0,0.1,0.1,0.2,0.3,0.3c0.1,0,0.3-0.1,0.3-0.3
		C27.4,78.9,27.3,78.8,27.1,78.8z"/>
	<path class="st0" d="M28.4,76.8c-0.1,0-0.3,0.1-0.3,0.3c0,0.1,0.1,0.2,0.3,0.3c0.1,0,0.3-0.1,0.3-0.3C28.7,77,28.6,76.9,28.4,76.8z
		"/>
	<path class="st0" d="M28.4,76.6c0.1,0,0.3-0.1,0.3-0.3c0-0.1-0.1-0.2-0.3-0.3c-0.1,0-0.3,0.1-0.3,0.3
		C28.2,76.5,28.3,76.6,28.4,76.6z"/>
	<path class="st0" d="M30.2,77.2c0.1,0,0.3-0.1,0.3-0.3c0-0.1-0.1-0.2-0.3-0.3c-0.1,0-0.3,0.1-0.3,0.3C30,77.1,30.1,77.2,30.2,77.2z
		"/>
	<path class="st0" d="M33.8,78.6c0.1,0,0.3-0.1,0.3-0.3c0-0.1-0.1-0.2-0.3-0.3c-0.1,0-0.3,0.1-0.3,0.3
		C33.6,78.4,33.7,78.6,33.8,78.6z"/>
	<path class="st0" d="M32.2,80.7c0.1,0,0.3-0.1,0.3-0.3c0-0.1-0.1-0.2-0.3-0.3c-0.1,0-0.3,0.1-0.3,0.3C31.9,80.6,32,80.7,32.2,80.7z
		"/>
	<path class="st0" d="M30.9,79.7c-0.1,0-0.3,0.1-0.3,0.3c0,0.1,0.1,0.2,0.3,0.3c0.1,0,0.3-0.1,0.3-0.3C31.2,79.8,31,79.7,30.9,79.7z
		"/>
	<path class="st0" d="M32.7,77.6c-0.1,0-0.3,0.1-0.3,0.3c0,0.1,0.1,0.2,0.3,0.3c0.1,0,0.3-0.1,0.3-0.3C33,77.8,32.9,77.6,32.7,77.6z
		"/>
	<path class="st0" d="M31.6,75.4c-0.1,0-0.3,0.1-0.3,0.3c0,0.1,0.1,0.2,0.3,0.3c0.1,0,0.3-0.1,0.3-0.3
		C31.9,75.6,31.8,75.4,31.6,75.4z"/>
	<path class="st0" d="M31.5,79.3c0.1,0,0.3-0.1,0.3-0.3c0-0.1-0.1-0.2-0.3-0.3c-0.1,0-0.3,0.1-0.3,0.3
		C31.3,79.2,31.4,79.3,31.5,79.3z"/>
	<path class="st0" d="M34.2,79.7c-0.1,0-0.3,0.1-0.3,0.3c0,0.1,0.1,0.2,0.3,0.3c0.1,0,0.3-0.1,0.3-0.3
		C34.4,79.8,34.3,79.7,34.2,79.7z"/>
	<path class="st0" d="M33.5,83.2c0.1,0,0.3-0.1,0.3-0.3c0-0.1-0.1-0.2-0.3-0.3c-0.1,0-0.3,0.1-0.3,0.3
		C33.2,83.1,33.3,83.2,33.5,83.2z"/>
	<path class="st0" d="M35,84.1c0.1,0,0.3-0.1,0.3-0.3c0-0.1-0.1-0.2-0.3-0.3c-0.1,0-0.3,0.1-0.3,0.3C34.7,84,34.8,84.1,35,84.1z"/>
	<path class="st0" d="M33.5,85.7c-0.1,0-0.3,0.1-0.3,0.3c0,0.1,0.1,0.2,0.3,0.3c0.1,0,0.3-0.1,0.3-0.3
		C33.8,85.8,33.6,85.7,33.5,85.7z"/>
	<path class="st0" d="M40.5,83.9c-0.1,0-0.3,0.1-0.3,0.3c0,0.1,0.1,0.2,0.3,0.3c0.1,0,0.3-0.1,0.3-0.3C40.8,84,40.7,83.9,40.5,83.9z
		"/>
	<path class="st0" d="M39.6,86.2c-0.1,0-0.3,0.1-0.3,0.3c0,0.1,0.1,0.2,0.3,0.3c0.1,0,0.3-0.1,0.3-0.3
		C39.9,86.3,39.8,86.2,39.6,86.2z"/>
	<path class="st0" d="M42.6,85.2c-0.1,0-0.3,0.1-0.3,0.3c0,0.1,0.1,0.2,0.3,0.3c0.1,0,0.3-0.1,0.3-0.3
		C42.9,85.3,42.7,85.2,42.6,85.2z"/>
	<path class="st0" d="M45,85.2c0.1,0,0.3-0.1,0.3-0.3c0-0.1-0.1-0.2-0.3-0.3c-0.1,0-0.3,0.1-0.3,0.3C44.7,85.1,44.8,85.2,45,85.2z"
		/>
	<path class="st0" d="M44.6,84.6c0.1,0,0.3-0.1,0.3-0.3c0-0.1-0.1-0.2-0.3-0.3c-0.1,0-0.3,0.1-0.3,0.3
		C44.3,84.5,44.5,84.6,44.6,84.6z"/>
	<path class="st0" d="M43.9,86.8c0.1,0,0.3-0.1,0.3-0.3c0-0.1-0.1-0.2-0.3-0.3c-0.1,0-0.3,0.1-0.3,0.3
		C43.6,86.7,43.7,86.8,43.9,86.8z"/>
	<path class="st0" d="M46.2,86.2c0.1,0,0.3-0.1,0.3-0.3c0-0.1-0.1-0.2-0.3-0.3c-0.1,0-0.3,0.1-0.3,0.3C45.9,86.1,46,86.2,46.2,86.2z
		"/>
	<path class="st0" d="M48.6,85.4c0.1,0,0.3-0.1,0.3-0.3c0-0.1-0.1-0.2-0.3-0.3c-0.1,0-0.3,0.1-0.3,0.3
		C48.4,85.3,48.5,85.4,48.6,85.4z"/>
	<path class="st0" d="M49.2,83.5c0.1,0,0.3-0.1,0.3-0.3c0-0.1-0.1-0.2-0.3-0.3c-0.1,0-0.3,0.1-0.3,0.3C49,83.4,49.1,83.5,49.2,83.5z
		"/>
	<path class="st0" d="M51,84.6c0.1,0,0.3-0.1,0.3-0.3c0-0.1-0.1-0.2-0.3-0.3c-0.1,0-0.3,0.1-0.3,0.3C50.7,84.5,50.8,84.6,51,84.6z"
		/>
	<path class="st0" d="M50.6,81.8c0.1,0,0.3-0.1,0.3-0.3c0-0.1-0.1-0.2-0.3-0.3c-0.1,0-0.3,0.1-0.3,0.3
		C50.3,81.7,50.4,81.8,50.6,81.8z"/>
	<path class="st0" d="M54,82.6c0.1,0,0.3-0.1,0.3-0.3c0-0.1-0.1-0.2-0.3-0.3c-0.1,0-0.3,0.1-0.3,0.3C53.8,82.5,53.9,82.6,54,82.6z"
		/>
	<path class="st0" d="M53.3,84.5c-0.1,0-0.3,0.1-0.3,0.3c0,0.1,0.1,0.2,0.3,0.3c0.1,0,0.3-0.1,0.3-0.3
		C53.5,84.6,53.4,84.5,53.3,84.5z"/>
	<path class="st0" d="M52.5,83.9c0.1,0,0.3-0.1,0.3-0.3c0-0.1-0.1-0.2-0.3-0.3c-0.1,0-0.3,0.1-0.3,0.3
		C52.3,83.8,52.4,83.9,52.5,83.9z"/>
	<path class="st0" d="M51,86.1c-0.1,0-0.3,0.1-0.3,0.3c0,0.1,0.1,0.2,0.3,0.3c0.1,0,0.3-0.1,0.3-0.3C51.3,86.2,51.2,86.1,51,86.1z"
		/>
	<path class="st0" d="M56.9,84.2c0.1,0,0.3-0.1,0.3-0.3c0-0.1-0.1-0.2-0.3-0.3c-0.1,0-0.3,0.1-0.3,0.3C56.6,84,56.7,84.1,56.9,84.2z
		"/>
	<path class="st0" d="M55,84.6c0.1,0,0.3-0.1,0.3-0.3c0-0.1-0.1-0.2-0.3-0.3c-0.1,0-0.3,0.1-0.3,0.3C54.8,84.5,54.9,84.6,55,84.6z"
		/>
	<path class="st0" d="M56.8,81.1c0.1,0,0.1-0.1,0.1-0.1c0-0.1-0.1-0.1-0.1-0.1c-0.1,0-0.1,0.1-0.1,0.1C56.7,81,56.7,81.1,56.8,81.1z
		"/>
	<path class="st0" d="M53.5,79.6c0.1,0,0.3-0.1,0.3-0.3c0-0.1-0.1-0.2-0.3-0.3c-0.1,0-0.3,0.1-0.3,0.3
		C53.3,79.5,53.4,79.6,53.5,79.6z"/>
	<path class="st0" d="M52.7,81.1c0.1,0,0.3-0.1,0.3-0.3c0-0.1-0.1-0.2-0.3-0.3c-0.1,0-0.3,0.1-0.3,0.3C52.4,81,52.5,81.1,52.7,81.1z
		"/>
	<path class="st0" d="M54.5,80.6c0.1,0,0.3-0.1,0.3-0.3c0-0.1-0.1-0.2-0.3-0.3c-0.1,0-0.3,0.1-0.3,0.3
		C54.3,80.5,54.4,80.6,54.5,80.6z"/>
	<path class="st0" d="M55.8,77.4c0.1,0,0.2-0.1,0.2-0.2c0-0.1-0.1-0.2-0.2-0.2c-0.1,0-0.2,0.1-0.2,0.2
		C55.6,77.3,55.7,77.4,55.8,77.4z"/>
	<path class="st0" d="M53.2,76.4c0.1,0,0.2-0.1,0.2-0.2c0-0.1-0.1-0.2-0.2-0.2c-0.1,0-0.2,0.1-0.2,0.2C53,76.3,53.1,76.4,53.2,76.4z
		"/>
	<path class="st0" d="M54.7,77.3c-0.1,0-0.1,0.1-0.1,0.1c0,0.1,0.1,0.1,0.1,0.1c0.1,0,0.1-0.1,0.1-0.1
		C54.8,77.4,54.8,77.3,54.7,77.3z"/>
	<path class="st0" d="M56.7,79.3c0.1,0,0.2-0.1,0.2-0.2c0-0.1-0.1-0.2-0.2-0.2c-0.1,0-0.2,0.1-0.2,0.2
		C56.5,79.2,56.6,79.3,56.7,79.3z"/>
	<path class="st0" d="M57.6,75.8c0.1,0,0.2-0.1,0.2-0.2c0-0.1-0.1-0.2-0.2-0.2c-0.1,0-0.2,0.1-0.2,0.2
		C57.5,75.7,57.5,75.8,57.6,75.8z"/>
	<path class="st0" d="M54.5,74.9c0.1,0,0.2-0.1,0.2-0.2c0-0.1-0.1-0.2-0.2-0.2c-0.1,0-0.2,0.1-0.2,0.2
		C54.4,74.8,54.4,74.9,54.5,74.9z"/>
	<path class="st0" d="M56.5,76.4c-0.1,0-0.2,0.1-0.2,0.2c0,0.1,0.1,0.2,0.2,0.2c0.1,0,0.2-0.1,0.2-0.2
		C56.6,76.5,56.6,76.4,56.5,76.4z"/>
	<path class="st0" d="M57.6,77.2c0.1,0,0.2-0.1,0.2-0.2c0-0.1-0.1-0.2-0.2-0.2c-0.1,0-0.2,0.1-0.2,0.2
		C57.5,77.1,57.5,77.2,57.6,77.2z"/>
	<path class="st0" d="M59.7,75.4c0.1,0,0.1-0.1,0.1-0.1c0-0.1-0.1-0.1-0.1-0.1c-0.1,0-0.1,0.1-0.1,0.1
		C59.6,75.4,59.6,75.4,59.7,75.4z"/>
	<path class="st0" d="M59.1,78.9c0.1,0,0.1-0.1,0.1-0.1c0-0.1-0.1-0.1-0.1-0.1c-0.1,0-0.1,0.1-0.1,0.1C59,78.8,59,78.9,59.1,78.9z"
		/>
	<path class="st0" d="M57.6,72.8c0.1,0,0.1-0.1,0.1-0.1c0-0.1-0.1-0.1-0.1-0.1c-0.1,0-0.1,0.1-0.1,0.1
		C57.5,72.8,57.6,72.8,57.6,72.8z"/>
	<path class="st0" d="M55.7,75.4c0.1,0,0.1-0.1,0.1-0.1c0-0.1-0.1-0.1-0.1-0.1c-0.1,0-0.1,0.1-0.1,0.1
		C55.5,75.4,55.6,75.4,55.7,75.4z"/>
	<path class="st0" d="M56.4,73.1c0.1,0,0.2-0.1,0.2-0.2c0-0.1-0.1-0.2-0.2-0.2c-0.1,0-0.2,0.1-0.2,0.2C56.2,73,56.3,73.1,56.4,73.1z
		"/>
	<path class="st0" d="M57.5,73.9c0.1,0,0.2-0.1,0.2-0.2c0-0.1-0.1-0.2-0.2-0.2c-0.1,0-0.2,0.1-0.2,0.2
		C57.3,73.8,57.4,73.9,57.5,73.9z"/>
	<path class="st0" d="M59.1,73.3c0.1,0,0.2-0.1,0.2-0.2c0-0.1-0.1-0.2-0.2-0.2c-0.1,0-0.2,0.1-0.2,0.2C58.9,73.2,59,73.3,59.1,73.3z
		"/>
	<path class="st0" d="M54.7,72.7c0.1,0,0.2-0.1,0.2-0.2c0-0.1-0.1-0.2-0.2-0.2c-0.1,0-0.2,0.1-0.2,0.2
		C54.5,72.6,54.6,72.7,54.7,72.7z"/>
	<path class="st0" d="M56.8,69.7c0.1,0,0.1-0.1,0.1-0.1c0-0.1-0.1-0.1-0.1-0.1c-0.1,0-0.1,0.1-0.1,0.1
		C56.7,69.7,56.7,69.7,56.8,69.7z"/>
	<path class="st0" d="M59.7,71.2c0.1,0,0.2-0.1,0.2-0.2c0-0.1-0.1-0.2-0.2-0.2c-0.1,0-0.2,0.1-0.2,0.2
		C59.5,71.1,59.6,71.2,59.7,71.2z"/>
	<path class="st0" d="M56.6,71.1c0.1,0,0.2-0.1,0.2-0.2c0-0.1-0.1-0.2-0.2-0.2c-0.1,0-0.2,0.1-0.2,0.2
		C56.4,71.1,56.5,71.1,56.6,71.1z"/>
	<path class="st0" d="M58,70.9c0.1,0,0.2-0.1,0.2-0.2c0-0.1-0.1-0.2-0.2-0.2c-0.1,0-0.2,0.1-0.2,0.2C57.8,70.8,57.9,70.9,58,70.9z"
		/>
	<path class="st0" d="M62.5,94.9l-3.1-5l-1.5-2.5c-0.1-0.1-0.1-0.2-0.2-0.3c0-0.1-0.1-0.1-0.1-0.2c0-0.1-0.1-0.1-0.1-0.2
		c-0.2-0.2-0.4-0.4-0.6-0.5c-0.5-0.2-1-0.3-1.6-0.2l-0.5,0.1c-3.4,1-6.9,1.9-10.4,2.8c-1.8,0.5-3.6,0.9-5.4,1.4
		c-0.9,0.2-1.8,0.4-2.7,0.6c-0.5,0.1-0.9,0.2-1.4,0.3c-0.5,0.1-0.9,0.2-1.4,0.3c-0.1,0-0.2,0-0.3,0c-0.1,0-0.2,0-0.3,0
		c-0.2,0-0.4,0-0.7,0c-0.4,0-0.9-0.1-1.3-0.2c-0.4-0.1-0.8-0.3-1.2-0.6c-0.4-0.2-0.7-0.5-1-0.9c-0.6-0.7-1-1.5-1.3-2.3
		c-0.3-0.8-0.5-1.7-0.7-2.6c0-0.2-0.1-0.4-0.1-0.7l-0.1-0.7c0-0.5-0.2-1-0.4-1.5c-0.2-0.5-0.5-0.9-0.9-1.3c0,0,0,0-0.1-0.1
		c0.1,0,0.2-0.1,0.2-0.3c0-0.1-0.1-0.2-0.2-0.2c-0.1,0-0.3,0.1-0.3,0.2c0,0,0,0,0,0c-0.1-0.1-0.2-0.1-0.3-0.2c1.2-1.3,2-2.8,2.5-4.5
		c0,0,0,0,0,0l0,0c0,0,0-0.1,0-0.1l0,0c0,0,0,0,0-0.1l0,0c0,0,0,0,0-0.1l0,0l0,0c0,0,0,0,0-0.1l0,0c0,0,0,0,0,0l0,0c0,0,0,0,0,0
		c-1.9-1.3-4.1-1.9-6.4-1.8c-0.7-2.2-1-4.4-1.1-6.7c0.3,0,0.6,0,0.9,0c-0.1,0.1-0.1,0.3,0,0.4c0.1,0.1,0.3,0.1,0.4,0
		c0.1-0.1,0.1-0.3,0-0.4c0,0-0.1,0-0.1-0.1c0,0,0.1,0,0.1,0c0.3-0.1,0.7-0.3,0.9-0.5c0.3-0.2,0.5-0.6,0.5-0.9c0-0.1,0-0.1-0.1-0.2
		c-0.1,0-0.1,0-0.2,0.1l0,0c-0.2,0.5-0.7,0.9-1.3,1c-0.3,0.1-0.6,0.1-0.9,0c-0.2,0-0.4,0-0.6-0.1c0,0,0,0,0,0c-0.1,0-0.1,0-0.2-0.1
		l0,0c0.1-0.1,0-0.3-0.1-0.4c0,0-0.1,0-0.1,0c-0.1,0-0.2,0.1-0.2,0.2c-0.1,0-0.2-0.1-0.3-0.2c-0.1,0-0.1-0.1-0.2-0.1
		c-0.1,0-0.2-0.1-0.2-0.1c-0.2-0.1-0.3-0.1-0.5-0.2c-0.7-0.2-1.4-0.2-2.1-0.1c-0.2,0-0.3,0.1-0.5,0.1c-0.1,0-0.3,0.1-0.4,0.1
		c-0.3,0-0.6,0-0.9,0c-0.6,0-1.2-0.2-1.7-0.5c-0.5-0.3-1-0.7-1.3-1.2c-0.3-0.5-0.5-1.1-0.5-1.6c0-0.6,0.1-1.2,0.3-1.8
		c0.2-0.6,0.4-1.2,0.6-1.8c0.2-0.6,0.5-1.2,0.7-1.8c0.2-0.6,0.4-1.2,0.6-1.9c0.8-2.5,1.5-5,2.2-7.4c0.3-0.9,0.5-1.9,0.6-2.8
		c0.1-1,0.1-1.9,0.1-2.9c0-1.9-0.2-3.8-0.4-5.7c-0.1-0.9-0.3-1.9-0.4-2.8l-0.1-0.4c0-0.1,0-0.1,0-0.2l0-0.2c0-0.2-0.1-0.5-0.1-0.7
		c-0.1-0.5-0.1-0.9-0.1-1.4c-0.2-1.4-0.2-2.8-0.1-4.2c0.1-1.9,0.4-3.7,0.7-5.6c0.4-1.8,0.9-3.7,1.5-5.4c0.6-1.8,1.4-3.5,2.2-5.2
		c0.4-0.8,0.9-1.6,1.4-2.4c0.3-0.4,0.5-0.8,0.8-1.2c0.1-0.2,0.3-0.4,0.4-0.6C20.8,6,20.9,6,21,5.9c0,0,0.1-0.1,0.1-0.1
		c0,0,0.1-0.1,0.1-0.1l0,0c0.1-0.1,0.1-0.2,0.1-0.2c-0.1-0.1-0.2-0.1-0.2-0.1c-0.1,0-0.1,0.1-0.2,0.1c0,0-0.1,0.1-0.1,0.1
		c-0.1,0.1-0.2,0.2-0.2,0.3c-0.2,0.2-0.3,0.4-0.4,0.6c-0.3,0.4-0.6,0.8-0.8,1.2c-0.5,0.8-1,1.6-1.5,2.5c-2.7,5.1-4.3,10.6-4.7,16.3
		c-0.1,1.4-0.1,2.8,0.1,4.3c0,0.5,0.1,0.9,0.1,1.4c0,0.2,0.1,0.5,0.1,0.7l0,0.2c0,0.1,0,0.1,0,0.2l0.1,0.3c0.2,0.9,0.3,1.9,0.4,2.8
		c0.2,1.9,0.4,3.7,0.4,5.6c0,0.9,0,1.9-0.1,2.8c-0.1,0.9-0.3,1.8-0.6,2.7l0,0l0,0c-0.7,2.5-1.4,5-2.2,7.4c-0.2,0.6-0.4,1.2-0.6,1.8
		c-0.2,0.6-0.5,1.2-0.7,1.8s-0.5,1.2-0.7,1.8c-0.2,0.6-0.3,1.3-0.3,2c0,0.7,0.2,1.4,0.6,2c0.2,0.3,0.4,0.6,0.7,0.8
		c0.3,0.2,0.5,0.4,0.8,0.6c0.6,0.3,1.3,0.6,2,0.6c0.3,0,0.7,0,1,0c0.2,0,0.3-0.1,0.5-0.1c0.1,0,0.3-0.1,0.5-0.1
		c0.6-0.1,1.2-0.1,1.8,0.1c0.1,0,0.3,0.1,0.4,0.1c0.1,0,0.1,0.1,0.2,0.1l0.2,0.1c0.3,0.1,0.6,0.3,0.8,0.4c0.1,2.5,0.5,5,1.3,7.4
		c0,0,0,0.1,0,0.1c0.3,0.7,0.7,1.4,1.2,1.9c0,0,0,0.1,0,0.1c0,0.1,0,0.1-0.1,0.2c0,0.1-0.1,0.3-0.1,0.4c0,0.1,0,0.2,0,0.3l0,0l0,0.1
		c0,0.5,0.1,1,0.4,1.5c0.2,0.5,0.6,0.9,1.1,1.2c0.2,0.1,0.4,0.2,0.6,0.4c0.2,0.1,0.4,0.2,0.5,0.3c0,0,0,0,0.1,0
		c0.1,0,0.1,0.1,0.2,0.1c0.3,0.2,0.6,0.4,0.9,0.6c0.3,0.3,0.6,0.6,0.7,1c0.2,0.4,0.3,0.8,0.3,1.2l0.1,0.7c0,0.2,0.1,0.5,0.1,0.7
		c0.1,0.9,0.4,1.9,0.7,2.8c0.3,0.9,0.8,1.8,1.5,2.5c0.3,0.4,0.7,0.7,1.1,1c0.4,0.3,0.9,0.5,1.3,0.6c0.5,0.1,1,0.2,1.5,0.2
		c0.2,0,0.5,0,0.7,0c0.1,0,0.2,0,0.4,0c0.1,0,0.2,0,0.4,0c0.5-0.1,0.9-0.2,1.4-0.3c0.5-0.1,0.9-0.2,1.4-0.3c0.9-0.2,1.8-0.4,2.7-0.7
		c1.8-0.5,3.6-0.9,5.4-1.4c3.4-0.9,6.8-1.9,10.1-2.8c0,0,0.1,0,0.1,0l0.2-0.1c0.1,0,0.2-0.1,0.3-0.1c0,0,0.1,0,0.1,0l0,0
		c0.6-0.2,1.3,0,1.8,0.5c0,0,0.1,0.1,0.1,0.1c0,0,0.1,0.1,0.1,0.1c0.1,0.1,0.1,0.2,0.2,0.3l1.6,2.5l3.2,4.9c0,0,0.1,0.1,0.1,0
		C62.5,95,62.6,94.9,62.5,94.9L62.5,94.9z"/>
</g>
</svg>
